<?xml version="1.0" standalone="no"?>
<!DOCTYPE svg PUBLIC "-//W3C//DTD SVG 20010904//EN"
 "http://www.w3.org/TR/2001/REC-SVG-20010904/DTD/svg10.dtd">
<svg version="1.0" xmlns="http://www.w3.org/2000/svg"
 width="400.000000pt" height="400.000000pt" viewBox="0 0 400.000000 400.000000"
 preserveAspectRatio="xMidYMid meet">
<metadata>
Created by potrace 1.16, written by Peter Selinger 2001-2019
</metadata>
<g transform="translate(0.000000,400.000000) scale(0.100000,-0.100000)"
fill="#000000" stroke="none">
<path d="M0 2000 l0 -2000 2000 0 2000 0 0 2000 0 2000 -2000 0 -2000 0 0
-2000z m2150 1623 c244 -270 636 -653 955 -933 372 -327 505 -495 586 -742 25
-77 29 -105 29 -199 0 -89 -4 -122 -24 -177 -153 -438 -823 -605 -1430 -358
-50 20 -94 36 -99 36 -15 0 0 -108 23 -169 42 -108 98 -200 235 -381 40 -52
88 -119 109 -148 l36 -52 -541 0 c-429 0 -539 3 -533 13 10 16 67 94 169 232
147 198 221 341 232 451 7 65 3 66 -89 24 -36 -16 -112 -43 -169 -60 -533
-158 -1096 3 -1258 362 -61 134 -60 330 4 483 91 221 244 404 585 700 290 253
644 599 918 898 74 81 138 147 141 147 4 0 58 -57 121 -127z"/>
</g>
</svg>
